<?xml version="1.0" standalone="no"?>
<!DOCTYPE svg PUBLIC "-//W3C//DTD SVG 20010904//EN"
 "http://www.w3.org/TR/2001/REC-SVG-20010904/DTD/svg10.dtd">
<svg version="1.0" xmlns="http://www.w3.org/2000/svg"
 width="1024.000000pt" height="1024.000000pt" viewBox="0 0 1024.000000 1024.000000"
 preserveAspectRatio="xMidYMid meet">

<g transform="translate(0.000000,1024.000000) scale(0.100000,-0.100000)"
fill="#000000" stroke="none">
<path d="M3409 8325 c-725 -100 -1288 -669 -1369 -1383 -8 -68 -10 -630 -8
-1887 l4 -1790 22 -97 c150 -653 637 -1123 1286 -1241 l121 -22 1630 0 c1747
0 1689 -2 1891 51 176 46 319 111 485 222 312 209 538 524 639 892 52 190 50
120 50 2047 0 1171 -4 1818 -10 1865 -34 237 -123 466 -263 673 -84 123 -285
323 -407 404 -183 122 -382 206 -598 254 -97 21 -105 21 -1737 23 -1318 2
-1659 0 -1736 -11z m1773 -1405 c280 -27 539 -145 732 -334 237 -234 366 -536
366 -860 0 -99 -19 -255 -40 -327 l-10 -36 -103 -6 c-56 -3 -103 -5 -104 -4
-1 1 9 39 22 84 162 560 -178 1136 -750 1269 -125 29 -340 25 -468 -9 -411
-109 -701 -437 -757 -855 -23 -169 7 -384 74 -536 32 -71 32 -76 4 -76 -30 -1
-99 -32 -117 -53 -7 -10 -18 -17 -23 -17 -16 0 -76 143 -103 246 -62 239 -47
508 40 741 118 313 388 581 704 700 112 42 272 75 401 82 14 0 73 -4 132 -9z
m133 -349 c229 -68 430 -231 535 -433 130 -249 144 -487 44 -749 -24 -65 -26
-67 -70 -78 -102 -26 -205 -88 -237 -145 -7 -11 -14 -61 -17 -111 l-5 -90 -93
-47 c-235 -118 -520 -123 -756 -14 -65 30 -75 38 -96 80 -26 55 -78 94 -148
111 -41 11 -54 21 -100 81 -63 82 -133 222 -158 319 -26 96 -26 342 -1 434 92
338 343 576 692 656 90 21 319 13 410 -14z m1075 -1321 c194 -17 345 -55 404
-101 25 -20 26 -25 26 -119 0 -55 -4 -102 -10 -105 -7 -4 -7 -12 0 -25 5 -10
10 -66 10 -124 0 -85 -3 -108 -17 -121 -16 -16 -16 -18 0 -27 11 -5 17 -21 17
-42 0 -32 2 -33 62 -50 209 -58 359 -229 390 -442 37 -259 -133 -516 -384
-581 -51 -13 -68 -22 -68 -34 0 -38 -91 -83 -231 -114 -116 -26 -463 -32 -607
-11 -131 19 -225 47 -273 79 l-34 23 -3 119 c-1 66 2 123 7 128 6 6 6 19 1 33
-6 16 -5 33 2 50 9 20 9 30 0 45 -16 26 -16 241 0 257 9 9 9 15 0 24 -16 16
-17 244 -1 254 8 4 8 9 0 17 -16 16 -14 222 1 247 10 15 10 22 0 32 -15 15
-17 234 -2 243 7 4 7 12 0 25 -5 10 -10 54 -10 98 0 63 4 84 19 104 70 88 401
144 701 118z m-1896 -285 c70 -46 57 -156 -53 -428 -39 -97 -71 -181 -71 -185
0 -5 66 -12 146 -16 94 -5 161 -13 186 -23 106 -43 129 -176 43 -252 l-35 -30
26 -38 c37 -54 30 -120 -17 -169 -18 -19 -40 -34 -48 -34 -11 0 -8 -7 8 -24
15 -16 25 -42 29 -72 7 -61 -18 -108 -69 -131 -32 -15 -37 -22 -32 -43 3 -14
6 -27 5 -30 0 -40 -7 -56 -31 -81 l-29 -29 -202 0 c-231 0 -274 9 -391 85
-103 66 -109 69 -194 75 l-80 5 -3 401 -2 401 66 7 c80 8 110 23 188 90 85 73
172 179 287 348 92 135 126 174 169 191 23 10 76 0 104 -18z m1076 -254 l0
-109 -48 -20 c-200 -86 -501 -106 -726 -48 -55 14 -103 29 -108 34 -4 4 4 30
17 57 14 28 26 67 27 88 3 33 6 38 23 33 172 -41 223 -48 360 -43 157 5 247
24 374 81 42 19 77 34 79 35 1 1 2 -48 2 -108z m-2016 -127 c14 -14 16 -83 16
-614 0 -516 -2 -601 -15 -613 -20 -21 -126 -28 -333 -24 -149 3 -175 6 -192
22 -20 18 -20 31 -20 613 0 540 2 597 17 614 15 16 37 18 264 18 212 0 250 -2
263 -16z"/>
<path d="M5043 6118 c-19 -9 -30 -27 -46 -78 -3 -8 -28 -23 -56 -33 -67 -23
-141 -97 -172 -171 -17 -43 -29 -58 -48 -63 -37 -8 -71 -42 -71 -70 0 -29 32
-62 69 -69 23 -5 33 -15 47 -53 25 -65 102 -143 174 -175 41 -19 60 -33 60
-45 0 -30 39 -71 66 -71 40 0 62 18 75 58 9 33 17 40 60 55 68 25 151 107 175
174 16 44 23 52 50 57 39 8 67 37 67 71 0 34 -18 53 -64 65 -26 7 -39 16 -39
28 0 59 -120 192 -193 214 -33 10 -43 19 -58 55 -12 28 -28 47 -44 53 -15 6
-27 10 -28 9 -1 0 -12 -5 -24 -11z m103 -269 c70 -33 105 -111 85 -186 -20
-72 -110 -131 -180 -118 -158 29 -192 231 -51 303 55 27 92 28 146 1z"/>
<path d="M3284 3670 c-55 -23 -71 -99 -30 -147 53 -61 156 -21 156 62 0 63
-69 110 -126 85z"/>
</g>
</svg>
